<?xml version="1.0" standalone="no"?>
<!DOCTYPE svg PUBLIC "-//W3C//DTD SVG 20010904//EN"
 "http://www.w3.org/TR/2001/REC-SVG-20010904/DTD/svg10.dtd">
<svg version="1.0" xmlns="http://www.w3.org/2000/svg"
 width="512.000000pt" height="512.000000pt" viewBox="0 0 512.000000 512.000000"
 preserveAspectRatio="xMidYMid meet">

<g transform="translate(0.000000,512.000000) scale(0.100000,-0.100000)"
fill="#000000" stroke="none">
<path d="M1342 3821 c-179 -44 -333 -167 -418 -334 -70 -138 -68 -107 -72
-872 -2 -472 0 -717 8 -775 32 -243 201 -448 435 -528 l80 -27 726 -3 c819 -3
810 -4 959 69 201 99 349 326 350 537 0 28 3 52 7 52 4 0 74 -45 157 -99 178
-117 224 -135 333 -129 149 7 280 100 335 235 l23 58 0 555 0 555 -23 57 c-31
77 -109 161 -186 200 -49 25 -77 32 -143 36 -114 6 -159 -11 -339 -129 -83
-54 -153 -99 -157 -99 -4 0 -7 24 -7 53 -1 210 -149 437 -350 536 -146 71
-138 71 -935 70 -647 0 -716 -2 -783 -18z m1550 -446 c23 -17 54 -51 68 -75
l25 -45 0 -695 0 -695 -25 -45 c-14 -24 -45 -58 -68 -75 l-44 -30 -691 -3
c-481 -2 -704 0 -730 8 -49 14 -106 65 -128 115 -17 37 -19 84 -19 725 0 646
2 687 19 725 20 44 59 84 106 109 27 14 107 15 737 13 l706 -2 44 -30z m946
-1005 l-3 -190 -212 142 -213 141 0 97 0 97 213 141 212 142 3 -190 c1 -105 1
-275 0 -380z"/>
</g>
</svg>
